<svg xmlns="http://www.w3.org/2000/svg" width="127.001" height="114.577" viewBox="0 0 127.001 114.577"><g transform="translate(-602.575 232.374)"><path d="M629.162-221.21c-.908-2.819.725-5.327,3.557-6.239a9.011,9.011,0,0,1,3.458-.486l.9,2.865a4.709,4.709,0,0,0-2.737.17c-1.808.583-2.667,1.641-2.292,2.8.339,1.05,1.422,1.426,2.762.994a2.693,2.693,0,0,0,1.336-.835l-.256-.8-.733.236a7.325,7.325,0,0,0-.992.431L633.8-223.3l4.6-1.482,1.21,3.754a7.453,7.453,0,0,1-4.036,2.807c-2.833.913-5.5-.168-6.408-3m15.124-3.574a2.391,2.391,0,0,0-.547.176l.1.534a17.553,17.553,0,0,0,.954,3.237l-3.57.708a17.427,17.427,0,0,0-.353-3.355l-.5-2.529a17.54,17.54,0,0,0-.953-3.236l5.536-1.1c1.993-.4,3.711.076,4.019,1.626.316,1.589-1.052,2.686-3.006,3.074l-.116.024.014.078.027-.005c1.121-.222,1.6.779,2.553.59a1.884,1.884,0,0,0,1.5-1.678l.815,3.9a1.941,1.941,0,0,1-1.427,1.2c-3.1.615-2.727-3.711-5.046-3.251m.939-1.135c.678-.134,1.068-.483.971-.978-.091-.456-.591-.655-1.2-.534l-1.746.347.3,1.5Zm6.852.449-.288-2.562a17.559,17.559,0,0,0-.664-3.306l3.616-.407a16.547,16.547,0,0,0,.072,3.374l.287,2.561a16.564,16.564,0,0,0,.679,3.305l-3.616.407a17.6,17.6,0,0,0-.085-3.372m4.99,2.165v-3.495a7.074,7.074,0,0,0,4.429,1.225c.929-.033,1.734-.207,1.716-.685-.042-1.208-6.044.426-6.167-3.024-.068-1.925,1.9-2.978,4.529-3.072a12.418,12.418,0,0,1,3.726.48l.118,3.358a6.618,6.618,0,0,0-3.6-.869c-.956.034-1.706.26-1.69.7.052,1.474,6.089-.309,6.208,3.05.07,1.964-1.931,2.859-4.6,2.953a17.311,17.311,0,0,1-4.661-.618m13.058.076a5.567,5.567,0,0,0-2.58.433,20.992,20.992,0,0,0,.515-3.535l.151-2.572a18.616,18.616,0,0,0-.108-3.371l3.633.213a16.969,16.969,0,0,0-.513,3.3l-.176,3,2.638.156A4.792,4.792,0,0,0,676.15-226l-.223,3.313a3.756,3.756,0,0,1-1.534.3c-1.617-.095-2.391-.726-4.261-.835m9.018-1.366.1-.7-1.289-2.915a31.775,31.775,0,0,0-1.8-3.662L680-231.3a22.615,22.615,0,0,0,.614,2.305l.5,1.041.145.022.785-.865a21.539,21.539,0,0,0,1.264-2.016l3.823.563a29.955,29.955,0,0,0-2.764,2.99l-2.089,2.43-.105.71a12.54,12.54,0,0,0-.09,2.525l-3.6-.53a11.638,11.638,0,0,0,.658-2.467m8.442-1.544a2.534,2.534,0,0,0,1.365-.988.908.908,0,0,1-.307-.028,1.008,1.008,0,0,1-.767-1.2c.005-.023.011-.046.017-.069a1.207,1.207,0,0,1,1.428-.9,1.378,1.378,0,0,1,1.008,1.668c-.009.035-.019.069-.03.1a3.289,3.289,0,0,1-2.045,2.264Zm2.29,5.446L691-224a7.061,7.061,0,0,0,3.788,2.6c.89.272,1.707.368,1.846-.09.353-1.156-5.854-1.564-4.847-4.866.562-1.842,2.768-2.2,5.282-1.43a12.452,12.452,0,0,1,3.366,1.665l-.98,3.215a6.62,6.62,0,0,0-3.127-2c-.915-.279-1.7-.309-1.824.11-.431,1.41,5.857,1.689,4.877,4.9-.573,1.88-2.757,2.074-5.31,1.3a17.293,17.293,0,0,1-4.206-2.1m-87.291,74.971a19.247,19.247,0,0,1,1.783-7.83,23.167,23.167,0,0,1,3.9-5.9,60.047,60.047,0,0,1,9.568-8.655c1.094-.781,2.224-1.507,3.37-2.206q4.85-2.959,9.7-5.909a36.612,36.612,0,0,1,5.6-2.891,22.838,22.838,0,0,1,4.182-1.3,7.076,7.076,0,0,1,8.171,4.918,11.065,11.065,0,0,1-3.045,11.117,3.773,3.773,0,0,0-.3.293.453.453,0,0,0-.046.64l.009.01a1.693,1.693,0,0,0,.107.145,5.767,5.767,0,0,1,1.225,3.694,21.5,21.5,0,0,1-1.5,7.985,24.326,24.326,0,0,1-16.445,14.52,21.593,21.593,0,0,1-2.186.4,3.712,3.712,0,0,1-2-.252,2.084,2.084,0,0,1-1.268-1.5,4.813,4.813,0,0,1,.073-2.378c.13-.5.295-1,.471-1.488,1.16-3.223,2.332-6.441,3.489-9.665a59.939,59.939,0,0,0,2.558-10.062,15.773,15.773,0,0,0,.142-3.6,3.082,3.082,0,0,0-.089-.531,1.555,1.555,0,0,0-1.8-1.266l-.029.005a6.767,6.767,0,0,0-1.784.519,14.577,14.577,0,0,0-3.106,1.932,18.955,18.955,0,0,0-4.652,5.38,4.4,4.4,0,0,0-.611,1.684,3.822,3.822,0,0,0,.393,2.275,8.81,8.81,0,0,0,.675,1.065,28.629,28.629,0,0,1,2.221,3.57,12,12,0,0,1,1.028,2.751,10.975,10.975,0,0,1-.3,5.637,9.725,9.725,0,0,1-4.227,5.577,11.192,11.192,0,0,1-4.624,1.759c-.139.018-.279.037-.419.042a12.116,12.116,0,0,1-4.206-.575,7,7,0,0,1-3-1.93,10.243,10.243,0,0,1-2.655-5.3,14.005,14.005,0,0,1-.378-2.7m37.2-12.123a2.256,2.256,0,0,0-.891-1.8c-.652-.558-1.155-.444-1.5.346a8.492,8.492,0,0,0-.558,1.648c-.244,1.157-.475,2.316-.714,3.473-.116.569-.245,1.135-.357,1.7a1.233,1.233,0,0,0,0,.712.3.3,0,0,0,.366.214l.011,0a1.671,1.671,0,0,0,.678-.371,8.217,8.217,0,0,0,2.964-5.921m-.9-10.594c-.007.141-.023.281-.016.421.013.327.193.458.519.4a.868.868,0,0,0,.418-.222,5.867,5.867,0,0,0,1.009-1.108,4.491,4.491,0,0,0,.764-2.31,1.556,1.556,0,0,0-.455-1.26.994.994,0,0,0-1.4-.115.993.993,0,0,0-.283.4,2.526,2.526,0,0,0-.181.632c-.2,1.045-.283,2.1-.373,3.161m-24.006-21.3a25.209,25.209,0,0,1,3.6-12.4,1.573,1.573,0,0,1,.311-.423,6,6,0,0,0,.693-.8,10.65,10.65,0,0,1,1.706-1.794,2.036,2.036,0,0,1,.663-.39.86.86,0,0,1,1.089.479,1.549,1.549,0,0,1,.124.682c-.01.485-.015.969-.036,1.454a4.459,4.459,0,0,0,.046.986,2.284,2.284,0,0,0,1.748,1.941,3.038,3.038,0,0,0,2-.091,5.376,5.376,0,0,0,2.209-1.566,8,8,0,0,0,1.388-8.619,3.415,3.415,0,0,0-.979-1.307,6.579,6.579,0,0,0-5.82-1.453,11.932,11.932,0,0,0-3.491,1.377,27.627,27.627,0,0,0-4.377,3.157,30.8,30.8,0,0,0-10.668,19.537,19.083,19.083,0,0,0,.474,7.857c.721,2.391,2.331,5.158,4.669,6.371,4.566,2.369,10.772.979,15.088-1.3,4.24-2.234,7.917-5.966,9.225-10.526a8.776,8.776,0,0,0-1.139-7.735c-2.912-3.774-8.561-2.837-10.711,1.136a5.1,5.1,0,0,0-.593,2.352,6.548,6.548,0,0,0,.284,2.067,4.748,4.748,0,0,1-.122,2.866,4.077,4.077,0,0,1-2.931,2.76,1.671,1.671,0,0,1-1.279-.13c-2.488-1.3-3.168-3.885-3.173-6.459Zm89.8,14.768A6.232,6.232,0,0,0,703.4-178a10.188,10.188,0,0,0-5.914-3.655,2.615,2.615,0,0,0-2.113.434,1.413,1.413,0,0,0-.665,1.384,6.188,6.188,0,0,0,.29,1.411c.728,2.251,1.287,4.548,1.867,6.838a50.679,50.679,0,0,1,1.051,5.118,43.887,43.887,0,0,1,.413,5.21,28.909,28.909,0,0,1-.165,3.721c-.121,1.156-.259,2.309-.39,3.463-.2,1.752-.453,3.5-.808,5.224-.285,1.373-.578,2.744-.825,4.123a3.2,3.2,0,0,0,1.428,3.444,5.641,5.641,0,0,0,2.025.886,9.174,9.174,0,0,0,2.39.185,8.819,8.819,0,0,0,1.255-.135,5.273,5.273,0,0,0,3.6-2.669,7.214,7.214,0,0,0,.852-2.489c.186-1.128.267-2.268.39-3.4a18.776,18.776,0,0,0-.221-5.087,37.5,37.5,0,0,0-1.378-5.349,9.29,9.29,0,0,0-1.211-2.54,1.394,1.394,0,0,1-.125-.206c-.044-.087-.1-.184-.016-.274a.294.294,0,0,1,.284-.047,1.4,1.4,0,0,1,.538.258,3.9,3.9,0,0,1,1.192,1.333,10.526,10.526,0,0,1,.851,1.986,21.261,21.261,0,0,1,.693,3.166,36.979,36.979,0,0,0,3.023,9.786,18.555,18.555,0,0,0,4.812,6.384,9.747,9.747,0,0,0,5.527,2.412,8.759,8.759,0,0,0,2.87-.137,6.114,6.114,0,0,0,4.656-6.038,10.108,10.108,0,0,0-.362-2.432,9.865,9.865,0,0,0-2.183-4.1,5.1,5.1,0,0,0-4-1.76,7.591,7.591,0,0,0-1.892.3,2.7,2.7,0,0,1-2.849-.794c-.15-.161-.3-.325-.441-.492A15.908,15.908,0,0,1,716-155.349c-.551-1.024-1.022-2.086-1.479-3.155a13.886,13.886,0,0,0-4.355-5.651c-.239-.184-.479-.365-.709-.557-.431-.358-.428-.487.029-.816s.931-.627,1.388-.955a6.332,6.332,0,0,0,2.51-3.632,9.589,9.589,0,0,0,.184-2.569.783.783,0,0,0-.067-.29,2.9,2.9,0,0,0-1.994-1.847,5.124,5.124,0,0,0-2.443-.027,2.075,2.075,0,0,0-1.536,1.31,4.723,4.723,0,0,0-.262,1.047c-.125.792-.245,1.584-.376,2.374a4.742,4.742,0,0,1-.367,1.266,2.848,2.848,0,0,1-1.049,1.212.742.742,0,0,1-1.036-.169.744.744,0,0,1-.137-.373,1.749,1.749,0,0,1-.005-.479c.058-.517.128-1.033.2-1.549a24.043,24.043,0,0,0,.3-3.259,7.641,7.641,0,0,0-.132-1.525m-15.951,32.17a16.281,16.281,0,0,1-8.632-2.607,16.779,16.779,0,0,1-5.83-6.033,28.065,28.065,0,0,1-3.341-9.092c-.3-1.757-.685-3.5-1.074-5.239a2.93,2.93,0,0,0-.379-1.006.939.939,0,0,0-1.261-.416.9.9,0,0,0-.139.086,1.222,1.222,0,0,0-.67,1.188q.075,1.262.178,2.517a31,31,0,0,1,.184,3.54,8.778,8.778,0,0,1-1.545,4.734,7.191,7.191,0,0,1-1.249,1.376,4.305,4.305,0,0,1-6.077-.376,4.308,4.308,0,0,1-.835-1.424,5.48,5.48,0,0,1-.162-3.252,9.357,9.357,0,0,1,.688-1.855c.713-1.5,1.453-2.992,2.061-4.543a51.106,51.106,0,0,0,2.738-9.886c.306-1.757.492-3.531.72-5.3a17.176,17.176,0,0,1,.568-3.008,6.991,6.991,0,0,1,.532-1.273,3.543,3.543,0,0,1,3.635-1.824,3,3,0,0,1,2.589,1.776,9.447,9.447,0,0,1,.906,3.28,56.58,56.58,0,0,0,.847,6.188c.548,2.442,1.015,4.9,1.791,7.292a34.946,34.946,0,0,0,1.353,3.534,15.906,15.906,0,0,0,7.13,7.714,26.982,26.982,0,0,0,6.107,2.485c.954.241,1.928.365,2.894.537.2.035.395.073.587.126a3.14,3.14,0,0,1,2.042,1.564,5.434,5.434,0,0,1-.175,5.973,7.422,7.422,0,0,1-5.165,3.2,1.472,1.472,0,0,1-.239.019h-.782m-19.392-30.58c-.016-.224-.027-.464-.05-.7a4.078,4.078,0,0,0-.491-1.472c-.2-.387-.462-.393-.733-.043a1.26,1.26,0,0,0-.236.546c-.061.314-.125.627-.178.944a5.514,5.514,0,0,0-.113.83,1.048,1.048,0,0,0,.985,1.109,1.1,1.1,0,0,0,.215-.009.539.539,0,0,0,.541-.471c.042-.235.042-.478.063-.734m.82,29.732a4.058,4.058,0,0,0,2.1-1.814,6.087,6.087,0,0,0,.662-4.418,4.355,4.355,0,0,0-3.541-3.5,2.422,2.422,0,0,0-1.58.195,9.559,9.559,0,0,0-.878.52c-.355.226-.7.475-1.055.692a6.706,6.706,0,0,1-3.489.966,14.029,14.029,0,0,1-2.679-.323,26.738,26.738,0,0,0-3.554-.585,6.441,6.441,0,0,0-3.165.537,2.134,2.134,0,0,1-.4.14c-.257.063-.379-.058-.316-.329a2.4,2.4,0,0,1,.185-.5c.783-1.647,1.565-3.294,2.439-4.895a70.664,70.664,0,0,0,4.4-9.8,41.314,41.314,0,0,0,1.911-7.005c.188-1.087.285-2.184.434-3.275a9.79,9.79,0,0,0-.266-3.813,6.2,6.2,0,0,0-5.07-4.865,6.72,6.72,0,0,0-2.806.065,6.518,6.518,0,0,0-3.405,1.917,3.665,3.665,0,0,0-1.045,2.67,7.519,7.519,0,0,0,.188,1.487,14.469,14.469,0,0,0,.978,2.772,18.469,18.469,0,0,1,1.011,2.764,21.9,21.9,0,0,1,.307,9.65,38.438,38.438,0,0,1-1.465,5.45,80.14,80.14,0,0,1-4.559,10.784c-.387.77-.771,1.542-1.1,2.339a7.091,7.091,0,0,0-.532,2.755,1.4,1.4,0,0,0,.875,1.322,2.021,2.021,0,0,0,1.235.124,10.584,10.584,0,0,0,4.185-1.57,25.563,25.563,0,0,1,4.33-2.213,4.782,4.782,0,0,1,4.021.057c.9.433,1.816.844,2.726,1.26a12.454,12.454,0,0,0,5.333,1.209,8.774,8.774,0,0,0,3.575-.756m37.256-54c.233-1.547.858-3.694,2.212-4.646.247-.173.416-.125.521.156a2.729,2.729,0,0,1,.176,1.7,11.033,11.033,0,0,0-.253,1.468A2.466,2.466,0,0,0,712-196.157a3.265,3.265,0,0,0,3.023-.822,6.143,6.143,0,0,0,1.536-2.275,7.49,7.49,0,0,0,.506-3.166,6.989,6.989,0,0,0-2.682-5.339,8.151,8.151,0,0,0-1.988-1.15,5.366,5.366,0,0,0-3.877-.141,9.577,9.577,0,0,0-4.224,2.863,16.894,16.894,0,0,0-2.842,4.518,18.663,18.663,0,0,0-1.3,4.839c-.1.718-.194,1.439-.236,2.163a20.191,20.191,0,0,0,2.582,10.776c2.558,4.358,7.808,7.065,12.614,5.026a14.469,14.469,0,0,0,4.959-3.87,16.1,16.1,0,0,0,2.909-4.325c1.51-3.538.257-8.679-4.007-9.427-4.535-.794-5.452,5.466-7.754,7.965a1.99,1.99,0,0,1-1.491.789c-1.381-.1-1.873-2.147-2.1-3.222a19.916,19.916,0,0,1-.423-4.876,17.143,17.143,0,0,1,.174-1.837m-59.817,13.454c2.174-1.309,2.48-3.22,5.988-3.5,2.837-.226,6.335,2.042,9.533.588,2.69-1.223,3.094-4.752,2.764-7.2a14.835,14.835,0,0,0-3.5-7.825,21.186,21.186,0,0,1-3.958-5.647,3.316,3.316,0,0,1,.587-3.672c.995-.869,2.943-.424,3.114.887a6.069,6.069,0,0,1-.12,1.324,3.156,3.156,0,0,0,3.063,3.247,3.172,3.172,0,0,0,.567-.035,3.966,3.966,0,0,0,1.862-1.053c2.477-2.356,2.221-6.813-.263-9.161-3.8-3.592-10.342-1.754-13.142,2.163-.209.294-.427.583-.627.882a5.971,5.971,0,0,0-.962,2.377,9.842,9.842,0,0,0,.836,5.739c1.2,2.436,3.01,4.485,3.709,7.175.408,1.571.057,3.6-1.635,4.243-1.721.656-3.036-.3-4.654-.869-3.439-1.213-7.089-.212-10.063,1.709-1.876,1.212-3.664,3.118-3.8,5.46-.156,2.648,1.247,5.185,3.991,5.5a6.788,6.788,0,0,0,1.709-.024c1.9-.262,3.323-1.307,5-2.318m28.734,11.4a30.318,30.318,0,0,0,1.782,5.728,15.4,15.4,0,0,0,1.4,2.856,29.354,29.354,0,0,0,4.284,5.1,15.078,15.078,0,0,0,4.585,2.928,7.706,7.706,0,0,0,3.71.546,3.456,3.456,0,0,0,2.974-2.039,7.1,7.1,0,0,0,.383-1.009c.16-.537.3-1.08.426-1.626a19.586,19.586,0,0,0,.52-4.467,6.855,6.855,0,0,0-1.061-3.647,3.785,3.785,0,0,0-2.475-1.761,2.94,2.94,0,0,0-3.286,1.427,4.307,4.307,0,0,0-.568,1.882,10.017,10.017,0,0,0,.182,2.45,2.63,2.63,0,0,1,.05.656c-.039.462-.327.638-.752.468a2.612,2.612,0,0,1-.886-.608,26.274,26.274,0,0,1-4.786-6.588,12.574,12.574,0,0,1-1.157-3.528,3.261,3.261,0,0,1-.052-1.136,1.147,1.147,0,0,1,.881-.962.975.975,0,0,1,1.042.44,3.413,3.413,0,0,1,.367.618c.194.395.371.8.553,1.2a4.188,4.188,0,0,0,.551.926,4.682,4.682,0,0,0,4.975,1.764,4.266,4.266,0,0,0,3.332-3.2,5.8,5.8,0,0,0,.033-2.623,13.983,13.983,0,0,0-.969-3.027,11.7,11.7,0,0,0-6.044-6.164,7.793,7.793,0,0,0-4.452-.672,5.7,5.7,0,0,0-4.221,2.672,11.2,11.2,0,0,0-1.517,4.335,24.011,24.011,0,0,0-.139,2.986,20.446,20.446,0,0,0,.336,4.08m-9.2-21.544a8.375,8.375,0,0,0,1.146,4.379,4.223,4.223,0,0,0,2.475,2,3.051,3.051,0,0,0,1.79.033,5.129,5.129,0,0,0,3.479-5.223c-.308-2.278-.653-4.553-.793-6.856a11.387,11.387,0,0,1,.514-4.017.928.928,0,0,1,.26-.422.185.185,0,0,1,.261-.022.2.2,0,0,1,.051.068,2.316,2.316,0,0,1,.245.838q.171,1.433.346,2.866c.039.311.073.623.134.931a.743.743,0,0,0,.6.65.777.777,0,0,0,.754-.354,2.05,2.05,0,0,0,.328-.6c.417-1.072.911-2.112,1.4-3.154a1.537,1.537,0,0,1,.317-.537c.062-.057.133-.109.222-.067a.171.171,0,0,1,.089.21c-.076.327-.164.649-.235.975a43.428,43.428,0,0,0-.581,4.354,19.686,19.686,0,0,0,.246,5.315,6.711,6.711,0,0,0,.986,2.626,5.765,5.765,0,0,0,1.6,1.667,2.9,2.9,0,0,0,3.5-.092,3.9,3.9,0,0,0,1.48-2.48,9.777,9.777,0,0,0-.116-4.358,3.6,3.6,0,0,1-.1-.554c-.2-1.451-.4-2.9-.583-4.354a24.263,24.263,0,0,1-.255-3.252,69.724,69.724,0,0,1,.559-7.071c.1-.935.238-1.867.354-2.8a2.85,2.85,0,0,0-.206-1.537c-.372-.839-.552-1.219-1.857-.973a4.33,4.33,0,0,0-2.039,1.053,9.823,9.823,0,0,0-1.567,1.79c-.569.8-1.094,1.635-1.589,2.484-.179.307-.359.615-.548.915-.109.173-.219.413-.458.364s-.226-.313-.246-.516a2.538,2.538,0,0,1-.021-.5,17.744,17.744,0,0,1,.339-2.737,8.326,8.326,0,0,0,.231-2.179,1.453,1.453,0,0,0-.1-.553,1.024,1.024,0,0,0-1.273-.69.979.979,0,0,0-.2.081,6.82,6.82,0,0,0-1.846,1.17,20.536,20.536,0,0,0-1.892,2.01,28.325,28.325,0,0,0-3.847,5.86,49.7,49.7,0,0,0-2.9,8.081c-.028.1-.039.2-.064.307a18.241,18.241,0,0,0-.3,3.058c-.032.606-.078,1.212-.093,1.818m-26.141-1.4a13.493,13.493,0,0,1-3.085-.4,8.291,8.291,0,0,1-4.886-3.631,6.271,6.271,0,0,1-.954-3.221,10.78,10.78,0,0,1,1.329-5.508,15.082,15.082,0,0,1,2.627-3.49,5.865,5.865,0,0,1,.568-.513,16.455,16.455,0,0,1,3.927-2.311,8.268,8.268,0,0,1,4.407-.461c.269.041.538.088.806.11a5.049,5.049,0,0,1,2.127.755,7.274,7.274,0,0,1,3.543,4.881,10.275,10.275,0,0,1-.219,5.431,10.571,10.571,0,0,1-2.119,3.886,15.533,15.533,0,0,1-3.281,2.939,11.326,11.326,0,0,1-2.2,1.091,8.036,8.036,0,0,1-2.594.446m2.257-15.118c-.12.008-.24.021-.36.021a3.717,3.717,0,0,0-2.8,1.453,1.461,1.461,0,0,0-.431,1.041,1.583,1.583,0,0,0,1.221,1.482,4.122,4.122,0,0,0,3.676-.88,1.632,1.632,0,0,0,.4-2.087,1.7,1.7,0,0,0-1.7-1.031m46.329,16.8a30.3,30.3,0,0,0,1.364,5.129,10.875,10.875,0,0,0,1.345,2.581,7.378,7.378,0,0,0,1.247,1.353,2.265,2.265,0,0,0,2.894.073c.092-.081.2-.141.3-.215a2.645,2.645,0,0,0,1.053-2.024,12.035,12.035,0,0,0-.045-1.566c-.072-1.063-.152-2.127-.2-3.191a36.177,36.177,0,0,1,.187-4.758,18.534,18.534,0,0,1,1.087-4.673c.574-1.608,1.229-3.179,1.923-4.733a21.769,21.769,0,0,0,1.176-3.218,5.052,5.052,0,0,0,.007-2.837,3.472,3.472,0,0,0-.835-1.5,4.2,4.2,0,0,0-4.268-1.176,6.428,6.428,0,0,0-2.632,1.459,11.4,11.4,0,0,0-2.7,3.57A22.691,22.691,0,0,0,689-199.72a35.631,35.631,0,0,0,.552,5.646m29.884-10V-205H719.1a.776.776,0,0,0-.37.078l.094-.628h1.765l.094.628a.787.787,0,0,0-.366-.078h-.328v.923a2.909,2.909,0,0,0,.057.631h-.66a3.263,3.263,0,0,0,.053-.631m1.558,0v-.842a2.972,2.972,0,0,0-.058-.631h.755l.4.94c.067.16.114.274.177.469h.028a3.913,3.913,0,0,1,.171-.472l.4-.937h.744a2.78,2.78,0,0,0-.057.631v.842a2.785,2.785,0,0,0,.057.631h-.661a3.424,3.424,0,0,0,.055-.631v-.763h-.03l-.624,1.4h-.171l-.619-1.4h-.024v.763a3.518,3.518,0,0,0,.054.631h-.661a3.037,3.037,0,0,0,.058-.631"/><path d="M611.1-117.925a10.524,10.524,0,0,0,.186-2.145v-1.643a10.538,10.538,0,0,0-.186-2.149h3.8c1.151-.016,2.082.493,2.078,1.416.009.857-.869,1.387-1.925,1.374h-.033v.112h.145a2.176,2.176,0,0,1,1.776.671,1.3,1.3,0,0,1,.273.828,1.437,1.437,0,0,1-1.047,1.366,3.181,3.181,0,0,1-1.072.17Zm2.119-3.416H614.3c.443,0,.736-.174.736-.484s-.289-.476-.736-.476h-1.077Zm0,1.805H614.5c.464,0,.779-.2.779-.55s-.319-.559-.787-.559h-1.271Z"/><path d="M619.533-118.17a3.575,3.575,0,0,0-.944.116,3.134,3.134,0,0,0-.683.257,9.268,9.268,0,0,0,.14-1.051c.038-.44.054-.845.054-1.222v-1.643c0-.369-.016-.75-.054-1.151a8.438,8.438,0,0,0-.14-1h2.322a9.537,9.537,0,0,0-.2,2.12v1.916h1.685a2.958,2.958,0,0,0,1.553-.339l-.017,2.12c-.017,0-.17.07-.319.132a2.028,2.028,0,0,1-.65.116C621.429-117.78,620.543-118.186,619.533-118.17Z"/><path d="M623.258-117.925a13.53,13.53,0,0,0,.77-2.145l.588-1.643a10.534,10.534,0,0,0,.24-1.135,8.424,8.424,0,0,0,.107-1.014h3.457a9.658,9.658,0,0,0,.116,1.035,9.4,9.4,0,0,0,.232,1.114l.584,1.643a13.935,13.935,0,0,0,.765,2.145h-2.322a6.894,6.894,0,0,0-.207-1.28l-.067-.178h-1.667l-.063.187a5.769,5.769,0,0,0-.2,1.271Zm2.8-2.306h1.271l-.356-.924a6.942,6.942,0,0,1-.228-1.026h-.111a8.209,8.209,0,0,1-.22,1.026Z"/><path d="M630.56-118.882a2.9,2.9,0,0,1-.737-2.012,2.891,2.891,0,0,1,.741-2,3.228,3.228,0,0,1,.791-.6,4.075,4.075,0,0,1,1.978-.476,6.888,6.888,0,0,1,1.2.1,4.347,4.347,0,0,1,.94.264l-.017,2.058a2.57,2.57,0,0,0-.77-.377,3.324,3.324,0,0,0-.977-.149,2.625,2.625,0,0,0-1.362.319.994.994,0,0,0-.53.886c0,.828.907,1.171,1.917,1.171a3.568,3.568,0,0,0,1.176-.194,2.809,2.809,0,0,0,.919-.509v2.223a9.063,9.063,0,0,1-1.168.286,8.633,8.633,0,0,1-1.333.1A3.763,3.763,0,0,1,630.56-118.882Z"/><path d="M640.284-118.6a4.555,4.555,0,0,1-.261-1c-.12-.679-.26-1.288-.96-1.288a1.053,1.053,0,0,0-.422.071v.753a9.531,9.531,0,0,0,.194,2.145h-2.322a9.975,9.975,0,0,0,.2-2.145v-1.643a9.983,9.983,0,0,0-.2-2.149h2.322a8.81,8.81,0,0,0-.194,2.012v.332h.48c.7,0,1.076-.448,1.076-1.276a1.958,1.958,0,0,0-.31-1.068h2.177a2.47,2.47,0,0,1,.244,1.114c-.016.749-.231,1.134-.815,1.328a4.915,4.915,0,0,1-1.548.17h-.51v.1h.1a1.918,1.918,0,0,1,1.3.568,1.24,1.24,0,0,0,.77.315.968.968,0,0,0,1.01-.655l.017,2.509a.951.951,0,0,1-.41.431,1.2,1.2,0,0,1-.617.182A1.286,1.286,0,0,1,640.284-118.6Z"/><path d="M647.134-117.925a6.945,6.945,0,0,0,.186-1.619V-120l-1.089-1.718a19.587,19.587,0,0,0-1.473-2.149h2.476a14.361,14.361,0,0,0,.6,1.4l.414.613h.091l.418-.621a14.084,14.084,0,0,0,.609-1.391h2.467c-.211.261-.455.588-.725.985s-.521.787-.741,1.164l-1.093,1.726v.459a7.754,7.754,0,0,0,.178,1.6Z"/><path d="M652.144-117.925a8.727,8.727,0,0,0,.14-1c.038-.4.055-.778.055-1.147v-1.643c0-.369-.017-.75-.055-1.151a8.412,8.412,0,0,0-.14-1h4.984l.286,2.165a.942.942,0,0,0-.481-.2,5.807,5.807,0,0,0-.943-.058h-1.727v.695h1.362c.464,0,.812-.012,1.043-.033v.874a8.461,8.461,0,0,0-1.043-.05h-1.362v.641h1.491a6.918,6.918,0,0,0,1.3-.086,1.759,1.759,0,0,0,.612-.228l-.306,2.215Z"/><path d="M659.864-117.925a9.983,9.983,0,0,0,.194-2.145v-1.842h-.79a2.221,2.221,0,0,0-1.143.282l.323-2.232h5.1l.323,2.232a2.267,2.267,0,0,0-1.146-.282h-.738v1.842a9.976,9.976,0,0,0,.195,2.145Z"/><path d="M664.5-117.925a9.982,9.982,0,0,0,.186-2.145v-1.643a10,10,0,0,0-.186-2.149h2.322a9.564,9.564,0,0,0-.194,2.149v1.643a9.531,9.531,0,0,0,.194,2.145Z"/><path d="M669.9-117.925a10.524,10.524,0,0,0,.186-2.145v-1.643a10.538,10.538,0,0,0-.186-2.149h3.8c1.151-.016,2.083.493,2.078,1.416.009.857-.869,1.387-1.925,1.374h-.033v.112h.145a2.177,2.177,0,0,1,1.776.671,1.3,1.3,0,0,1,.273.828,1.437,1.437,0,0,1-1.047,1.366,3.183,3.183,0,0,1-1.073.17Zm2.12-3.416h1.076c.443,0,.736-.174.736-.484s-.289-.476-.736-.476h-1.076Zm0,1.805H673.3c.464,0,.777-.2.777-.55s-.318-.559-.786-.559h-1.27Z"/><path d="M676.7-117.925a8.741,8.741,0,0,0,.14-1c.037-.4.055-.778.055-1.147v-1.643c0-.369-.018-.75-.055-1.151a8.425,8.425,0,0,0-.14-1h4.984l.286,2.165a.939.939,0,0,0-.48-.2,5.827,5.827,0,0,0-.945-.058h-1.725v.695h1.361c.464,0,.812-.012,1.044-.033v.874a8.5,8.5,0,0,0-1.044-.05h-1.361v.641h1.49a6.918,6.918,0,0,0,1.3-.086,1.768,1.768,0,0,0,.612-.228l-.306,2.215Z"/><path d="M684.013-117.925a8.341,8.341,0,0,0-.107-1c-.062-.394-.141-.774-.228-1.134l-.588-1.652a13.5,13.5,0,0,0-.728-2.149h2.322a5.59,5.59,0,0,0,.186,1.35l.6,1.875q.168.627.237,1.031h.1c.07-.377.144-.72.228-1.031l.6-1.875a7.733,7.733,0,0,0,.187-1.35h2.327a9.8,9.8,0,0,0-.39.981c-.136.4-.248.787-.343,1.168l-.584,1.643a11.3,11.3,0,0,0-.24,1.139,8.738,8.738,0,0,0-.108,1.006Z"/><path d="M689.449-117.925a8.727,8.727,0,0,0,.14-1c.038-.4.054-.778.054-1.147v-1.643c0-.369-.016-.75-.054-1.151a8.412,8.412,0,0,0-.14-1h4.984l.286,2.165a.942.942,0,0,0-.48-.2,5.827,5.827,0,0,0-.945-.058h-1.726v.695h1.362c.464,0,.811-.012,1.044-.033v.874a8.5,8.5,0,0,0-1.044-.05h-1.362v.641h1.49a6.9,6.9,0,0,0,1.3-.086,1.765,1.765,0,0,0,.613-.228l-.306,2.215Z"/><path d="M699.313-119.349c-.219-.584-.439-1.11-1.109-1.11a1.077,1.077,0,0,0-.365.042v.347a9.975,9.975,0,0,0,.2,2.145h-2.322a9.972,9.972,0,0,0,.2-2.145v-1.643a9.979,9.979,0,0,0-.2-2.149h3.6a2.621,2.621,0,0,1,2,.679,1.229,1.229,0,0,1,.311.84,1.267,1.267,0,0,1-.3.857,1.739,1.739,0,0,1-.807.526,3.638,3.638,0,0,1-1.155.17h-.074v.05h.016a1.419,1.419,0,0,1,.928.443.962.962,0,0,0,.6.244,1.183,1.183,0,0,0,1.142-.865l.025,2.541a1,1,0,0,1-.422.41,1.274,1.274,0,0,1-.621.17C699.835-117.793,699.578-118.621,699.313-119.349Zm-1.474-1.706h1.094c.446,0,.728-.174.728-.488,0-.295-.285-.485-.687-.485h-1.135Z"/><path d="M701.906-117.925a13.53,13.53,0,0,0,.77-2.145l.587-1.643a10.289,10.289,0,0,0,.24-1.135,8.256,8.256,0,0,0,.108-1.014h3.457a9.658,9.658,0,0,0,.116,1.035,9.81,9.81,0,0,0,.231,1.114L708-120.07a13.931,13.931,0,0,0,.766,2.145h-2.323a6.789,6.789,0,0,0-.206-1.28l-.066-.178H704.5l-.062.187a5.72,5.72,0,0,0-.2,1.271Zm2.8-2.306h1.27l-.355-.924a6.934,6.934,0,0,1-.228-1.026h-.112a7.892,7.892,0,0,1-.219,1.026Z"/><path d="M709.414-118.629a2.982,2.982,0,0,1-.943-2.256,2.954,2.954,0,0,1,.976-2.261,3.669,3.669,0,0,1,2.406-.832,5.6,5.6,0,0,1,2.194.381l-.017,1.917a1.754,1.754,0,0,0-.737-.327,4.38,4.38,0,0,0-.956-.108,2.6,2.6,0,0,0-1.424.335,1.047,1.047,0,0,0-.517.92,1,1,0,0,0,.405.836,1.713,1.713,0,0,0,1.076.31,1.6,1.6,0,0,0,.977-.248v-.534h-.493a3.549,3.549,0,0,0-.686.07l.016-.816h3.089v2.517a3.423,3.423,0,0,1-1.325.683,5.885,5.885,0,0,1-1.677.237A3.513,3.513,0,0,1,709.414-118.629Z"/><path d="M715.525-117.925a8.717,8.717,0,0,0,.141-1c.037-.4.054-.778.054-1.147v-1.643c0-.369-.017-.75-.054-1.151a8.4,8.4,0,0,0-.141-1h4.984l.286,2.165a.938.938,0,0,0-.48-.2,5.827,5.827,0,0,0-.945-.058h-1.725v.695h1.362c.463,0,.811-.012,1.043-.033v.874a8.482,8.482,0,0,0-1.043-.05h-1.362v.641h1.49a6.912,6.912,0,0,0,1.3-.086,1.76,1.76,0,0,0,.612-.228l-.306,2.215Z"/><path d="M659.561-130.2a10.43,10.43,0,0,0,.187-2.144v-1.644a10.458,10.458,0,0,0-.187-2.148h3.805c1.151-.017,2.082.492,2.078,1.415.008.858-.869,1.388-1.925,1.375h-.033v.112h.145a2.181,2.181,0,0,1,1.776.67,1.305,1.305,0,0,1,.273.828,1.436,1.436,0,0,1-1.047,1.366,3.183,3.183,0,0,1-1.073.17Zm2.12-3.415h1.076c.443,0,.737-.174.737-.484s-.29-.477-.737-.477h-1.076Zm0,1.805h1.279c.464,0,.778-.2.778-.551s-.318-.559-.786-.559h-1.271Z"/><path d="M667.887-130.2a6.933,6.933,0,0,0,.186-1.618v-.452l-1.089-1.718a19.456,19.456,0,0,0-1.474-2.148h2.476a14.1,14.1,0,0,0,.6,1.4l.413.613h.091l.419-.621a14.1,14.1,0,0,0,.608-1.391h2.468c-.212.261-.456.588-.726.985s-.521.787-.74,1.163l-1.094,1.727v.459a7.749,7.749,0,0,0,.179,1.6Z"/></g></svg>