<svg xmlns="http://www.w3.org/2000/svg" width="1920" height="1080" viewBox="0 0 1920 1080"><defs><style>.a{fill:#defffb;}.b{fill:#fe03c7;}.c{fill:#1a1a1a;}.d{fill:#f07e02;}</style></defs><rect width="1920" height="1080"/><circle class="a" cx="2.615" cy="2.615" r="2.615" transform="translate(1366.903 93.784)"/><circle class="a" cx="1.831" cy="1.831" r="1.831" transform="translate(1328.279 146.298)"/><circle class="a" cx="3.745" cy="3.745" r="3.745" transform="translate(1301.928 157.899)"/><circle class="a" cx="2.814" cy="2.814" r="2.814" transform="translate(1269.355 100.028)"/><circle class="a" cx="3.756" cy="3.756" r="3.756" transform="translate(1240.232 108.62)"/><circle class="a" cx="3.705" cy="3.705" r="3.705" transform="translate(1238.595 135.649)"/><circle class="a" cx="1.84" cy="1.84" r="1.84" transform="translate(1221.024 122.037)"/><circle class="a" cx="3.429" cy="3.429" r="3.429" transform="translate(1207.497 153.591)"/><circle class="a" cx="2.702" cy="2.702" r="2.702" transform="translate(1199.582 175.267)"/><circle class="a" cx="2.333" cy="2.333" r="2.333" transform="translate(1172.256 216.243)"/><circle class="a" cx="2.135" cy="2.135" r="2.135" transform="translate(1110.463 189.453)"/><circle class="a" cx="2.189" cy="2.189" r="2.189" transform="translate(1083.124 182.235)"/><circle class="a" cx="2.843" cy="2.843" r="2.843" transform="translate(1065.84 211.82)"/><circle class="a" cx="2.439" cy="2.439" r="2.439" transform="translate(1041.005 221.828)"/><circle class="a" cx="2.456" cy="2.456" r="2.456" transform="translate(1006.46 232.009)"/><circle class="a" cx="3.156" cy="3.156" r="3.156" transform="translate(1000.502 311.26)"/><circle class="a" cx="3.748" cy="3.748" r="3.748" transform="translate(965.961 256.228)"/><circle class="a" cx="2.324" cy="2.324" r="2.324" transform="translate(960.174 261.579)"/><circle class="a" cx="2.605" cy="2.605" r="2.605" transform="translate(920.83 291.987)"/><circle class="a" cx="3.165" cy="3.165" r="3.165" transform="translate(899.383 262.526)"/><circle class="a" cx="3.435" cy="3.435" r="3.435" transform="translate(901.087 217.873)"/><circle class="a" cx="3.414" cy="3.414" r="3.414" transform="translate(840.317 226.94)"/><circle class="a" cx="2.981" cy="2.981" r="2.981" transform="translate(849.383 196.367)"/><circle class="a" cx="2.364" cy="2.364" r="2.364" transform="translate(858.915 170.467)"/><circle class="a" cx="2.429" cy="2.429" r="2.429" transform="translate(838.239 140.76)"/><circle class="a" cx="2.137" cy="2.137" r="2.137" transform="translate(823.558 90.289)"/><circle class="a" cx="1.876" cy="1.876" r="1.876" transform="translate(788.274 110.397)"/><circle class="a" cx="2.269" cy="2.269" r="2.269" transform="translate(793.028 76.869)"/><circle class="a" cx="2.189" cy="2.189" r="2.189" transform="translate(723.605 101.033)"/><circle class="a" cx="3.596" cy="3.596" r="3.596" transform="translate(712.454 98.468)"/><circle class="a" cx="2.384" cy="2.384" r="2.384" transform="translate(701.51 75.051)"/><circle class="a" cx="2.327" cy="2.327" r="2.327" transform="translate(678.617 26.723)"/><circle class="a" cx="2.62" cy="2.62" r="2.62" transform="translate(672.937 64.506)"/><circle class="a" cx="3.393" cy="3.393" r="3.393" transform="translate(650.896 35.227)"/><circle class="a" cx="3.213" cy="3.213" r="3.213" transform="translate(634.666 50.662)"/><circle class="a" cx="1.973" cy="1.973" r="1.973" transform="translate(605.223 94.17)"/><circle class="a" cx="2.895" cy="2.895" r="2.895" transform="translate(550.117 44.866)"/><circle class="a" cx="3.622" cy="3.622" r="3.622" transform="translate(539.562 103.684)"/><circle class="a" cx="2.365" cy="2.365" r="2.365" transform="translate(489.434 118.347)"/><circle class="a" cx="2.038" cy="2.038" r="2.038" transform="translate(501.301 184.223)"/><circle class="a" cx="3.054" cy="3.054" r="3.054" transform="translate(434.672 171.176)"/><circle class="a" cx="3.705" cy="3.705" r="3.705" transform="translate(406.192 170.146)"/><circle class="a" cx="2.042" cy="2.042" r="2.042" transform="translate(426.889 249.404)"/><circle class="a" cx="3.245" cy="3.245" r="3.245" transform="translate(388.773 220.354)"/><circle class="a" cx="2.039" cy="2.039" r="2.039" transform="translate(383.441 241.835)"/><circle class="a" cx="3.586" cy="3.586" r="3.586" transform="translate(355.785 216.499)"/><circle class="a" cx="3.76" cy="3.76" r="3.76" transform="translate(359.08 250.371)"/><circle class="a" cx="3.688" cy="3.688" r="3.688" transform="translate(320.851 264.54)"/><circle class="a" cx="2.274" cy="2.274" r="2.274" transform="translate(306.433 266.752)"/><circle class="a" cx="1.763" cy="1.763" r="1.763" transform="translate(295.174 289.169)"/><circle class="a" cx="3.478" cy="3.478" r="3.478" transform="translate(290.999 233.838)"/><circle class="a" cx="1.96" cy="1.96" r="1.96" transform="translate(283.03 280.549)"/><circle class="a" cx="3.549" cy="3.549" r="3.549" transform="translate(272.351 252.518)"/><circle class="a" cx="3.39" cy="3.39" r="3.39" transform="translate(252.367 253.453)"/><circle class="a" cx="2.014" cy="2.014" r="2.014" transform="translate(225.204 226.978)"/><circle class="a" cx="3.374" cy="3.374" r="3.374" transform="translate(290.147 245.313)"/><circle class="a" cx="2.3" cy="2.3" r="2.3" transform="translate(248.677 193.6)"/><circle class="a" cx="2.227" cy="2.227" r="2.227" transform="translate(240.552 163.344)"/><circle class="a" cx="2.271" cy="2.271" r="2.271" transform="translate(283.443 153.272)"/><circle class="a" cx="2.111" cy="2.111" r="2.111" transform="translate(289.045 87.806)"/><circle class="a" cx="2.945" cy="2.945" r="2.945" transform="translate(212.654 98.938)"/><circle class="a" cx="2.377" cy="2.377" r="2.377" transform="translate(218.471 31.047)"/><circle class="a" cx="2.43" cy="2.43" r="2.43" transform="translate(177.261 33.461)"/><circle class="a" cx="2.636" cy="2.636" r="2.636" transform="translate(157.883 38.545)"/><circle class="a" cx="3.178" cy="3.178" r="3.178" transform="translate(175.839 109.141)"/><circle class="a" cx="2.253" cy="2.253" r="2.253" transform="translate(151.864 93.792)"/><circle class="a" cx="3.456" cy="3.456" r="3.456" transform="translate(141 91.489)"/><circle class="a" cx="3.757" cy="3.757" r="3.757" transform="translate(132.316 132.206)"/><circle class="a" cx="2.288" cy="2.288" r="2.288" transform="translate(95.056 113.33)"/><circle class="a" cx="3.784" cy="3.784" r="3.784" transform="translate(43.089 129.452)"/><circle class="a" cx="3.361" cy="3.361" r="3.361" transform="translate(22.966 129.621)"/><circle class="a" cx="1.779" cy="1.779" r="1.779" transform="translate(924.931 337.959)"/><circle class="a" cx="2.274" cy="2.274" r="2.274" transform="translate(895.43 330.572)"/><circle class="a" cx="1.899" cy="1.899" r="1.899" transform="translate(884.281 338.756)"/><circle class="a" cx="3.174" cy="3.174" r="3.174" transform="translate(844.25 359.284)"/><circle class="a" cx="3.591" cy="3.591" r="3.591" transform="translate(832.642 397.158)"/><circle class="a" cx="3.52" cy="3.52" r="3.52" transform="translate(794.955 423.37)"/><circle class="a" cx="1.793" cy="1.793" r="1.793" transform="translate(760.779 372.434)"/><circle class="a" cx="3.496" cy="3.496" r="3.496" transform="translate(743.529 395.241)"/><circle class="a" cx="3.221" cy="3.221" r="3.221" transform="translate(724.306 408.556)"/><circle class="a" cx="2.6" cy="2.6" r="2.6" transform="translate(699.963 387.401)"/><circle class="a" cx="3.19" cy="3.19" r="3.19" transform="translate(657.364 368.697)"/><circle class="a" cx="2.811" cy="2.811" r="2.811" transform="translate(627.074 341.599)"/><circle class="a" cx="3.433" cy="3.433" r="3.433" transform="translate(592.647 313.348)"/><circle class="a" cx="2.548" cy="2.548" r="2.548" transform="translate(576.522 323.81)"/><circle class="a" cx="2.422" cy="2.422" r="2.422" transform="translate(545.249 299.108)"/><circle class="a" cx="3.001" cy="3.001" r="3.001" transform="translate(530.766 323.65)"/><circle class="a" cx="2.394" cy="2.394" r="2.394" transform="translate(512.269 320.067)"/><circle class="a" cx="2.266" cy="2.266" r="2.266" transform="translate(491.507 317.861)"/><circle class="a" cx="3.051" cy="3.051" r="3.051" transform="translate(1823.468 197.707)"/><circle class="a" cx="1.902" cy="1.902" r="1.902" transform="translate(1789.146 162.455)"/><circle class="a" cx="2.336" cy="2.336" r="2.336" transform="translate(1740.921 174.027)"/><circle class="a" cx="1.939" cy="1.939" r="1.939" transform="translate(1725.379 208.434)"/><circle class="a" cx="3.615" cy="3.615" r="3.615" transform="translate(1719.046 245.748)"/><circle class="a" cx="3.768" cy="3.768" r="3.768" transform="translate(1679.329 209.34)"/><circle class="a" cx="2.458" cy="2.458" r="2.458" transform="translate(1667.815 216.703)"/><circle class="a" cx="3.14" cy="3.14" r="3.14" transform="translate(1643.349 174.588)"/><circle class="a" cx="2.207" cy="2.207" r="2.207" transform="translate(1636.791 172.761)"/><circle class="a" cx="2.342" cy="2.342" r="2.342" transform="translate(1580.891 187.913)"/><circle class="a" cx="2.398" cy="2.398" r="2.398" transform="translate(1574.544 186.923)"/><circle class="a" cx="3.115" cy="3.115" r="3.115" transform="translate(1558.099 201.067)"/><circle class="a" cx="2.269" cy="2.269" r="2.269" transform="translate(1546.548 149.292)"/><circle class="a" cx="2.904" cy="2.904" r="2.904" transform="translate(1547.686 110.74)"/><circle class="a" cx="2.204" cy="2.204" r="2.204" transform="translate(1487.34 128.122)"/><circle class="a" cx="3.618" cy="3.618" r="3.618" transform="translate(1445.61 135.079)"/><circle class="a" cx="2.405" cy="2.405" r="2.405" transform="translate(1746.926 103.594)"/><circle class="a" cx="2.75" cy="2.75" r="2.75" transform="translate(1711.987 104.427)"/><circle class="a" cx="2.065" cy="2.065" r="2.065" transform="translate(1682.08 75.134)"/><circle class="a" cx="1.752" cy="1.752" r="1.752" transform="translate(1663.505 42.689)"/><circle class="a" cx="2.084" cy="2.084" r="2.084" transform="translate(1622.365 50.366)"/><circle class="a" cx="3.786" cy="3.786" r="3.786" transform="translate(1861.148 364.633)"/><circle class="a" cx="2.862" cy="2.862" r="2.862" transform="translate(1853.69 330.778)"/><circle class="a" cx="3.082" cy="3.082" r="3.082" transform="translate(1814.775 325.426)"/><circle class="a" cx="3.265" cy="3.265" r="3.265" transform="translate(1165.61 52.187)"/><circle class="a" cx="2" cy="2" r="2" transform="translate(1126.113 64.629)"/><circle class="a" cx="3.009" cy="3.009" r="3.009" transform="translate(1113.439 83.18)"/><circle class="a" cx="3.415" cy="3.415" r="3.415" transform="translate(1065.248 123.719)"/><circle class="a" cx="2.86" cy="2.86" r="2.86" transform="translate(1050.448 121.588)"/><circle class="a" cx="3.552" cy="3.552" r="3.552" transform="translate(1019.542 74.005)"/><circle class="a" cx="2.056" cy="2.056" r="2.056" transform="translate(990.881 118.929)"/><circle class="a" cx="3.14" cy="3.14" r="3.14" transform="translate(963.481 70.995)"/><circle class="a" cx="2.729" cy="2.729" r="2.729" transform="translate(910.239 76.012)"/><circle class="a" cx="2.236" cy="2.236" r="2.236" transform="translate(30.068 321.69)"/><circle class="a" cx="2.202" cy="2.202" r="2.202" transform="translate(50.203 297.676)"/><circle class="a" cx="3.527" cy="3.527" r="3.527" transform="translate(57.921 266.219)"/><circle class="a" cx="3.072" cy="3.072" r="3.072" transform="translate(94.756 259.163)"/><circle class="a" cx="2.16" cy="2.16" r="2.16" transform="translate(1873.354 64.851)"/><circle class="a" cx="2.733" cy="2.733" r="2.733" transform="translate(1449.412 45.396)"/><circle class="b" cx="111.045" cy="111.045" r="111.045" transform="translate(1652.661 50.771)"/><path class="c" d="M1783.9,180.183s-25.726,27.572-57.46,27.572-57.46-27.572-57.46-27.572,25.725-27.572,57.46-27.572S1783.9,180.183,1783.9,180.183Z"/><circle class="c" cx="13.957" cy="13.957" r="13.957" transform="translate(1705.101 170.819)"/><path class="d" d="M1719.059,201.9a17.119,17.119,0,1,1,17.12-17.119A17.139,17.139,0,0,1,1719.059,201.9Zm0-27.914a10.795,10.795,0,1,0,10.794,10.795A10.807,10.807,0,0,0,1719.059,173.982Z"/><circle class="d" cx="85.877" cy="85.877" r="85.877" transform="translate(772.282 208.778)"/><path class="c" d="M932.148,278.8s-16.761,17.964-37.437,17.964S857.274,278.8,857.274,278.8s16.761-17.964,37.437-17.964S932.148,278.8,932.148,278.8Z"/><circle class="c" cx="9.094" cy="9.094" r="9.094" transform="translate(878.338 272.982)"/><path class="b" d="M887.432,293.229a11.154,11.154,0,1,1,11.154-11.153A11.166,11.166,0,0,1,887.432,293.229Zm0-18.187a7.033,7.033,0,1,0,7.033,7.034A7.042,7.042,0,0,0,887.432,275.042Z"/><circle class="b" cx="80.311" cy="80.311" r="80.311" transform="translate(99.994 57.644)"/><path class="c" d="M247.012,118.133s-20.336,21.795-45.421,21.795-45.42-21.795-45.42-21.795,20.335-21.8,45.42-21.8S247.012,118.133,247.012,118.133Z"/><circle class="c" cx="11.033" cy="11.033" r="11.033" transform="translate(196.368 110.139)"/><path class="d" d="M207.4,134.7a13.532,13.532,0,1,1,13.533-13.533A13.548,13.548,0,0,1,207.4,134.7Zm0-22.065a8.532,8.532,0,1,0,8.533,8.532A8.541,8.541,0,0,0,207.4,112.639Z"/></svg>