<svg xmlns="http://www.w3.org/2000/svg" width="1920" height="1080" viewBox="0 0 1920 1080"><defs><style>.a{fill:#999;}</style></defs><rect width="1920" height="1080"/><circle class="a" cx="3.634" cy="3.634" r="3.634" transform="translate(78.427 518.324)"/><circle class="a" cx="3.193" cy="3.193" r="3.193" transform="translate(61.677 474.277)"/><circle class="a" cx="2.971" cy="2.971" r="2.971" transform="translate(31.839 430.658)"/><circle class="a" cx="3.301" cy="3.301" r="3.301" transform="translate(81.155 391.381)"/><circle class="a" cx="2.712" cy="2.712" r="2.712" transform="translate(87.953 328.761)"/><circle class="a" cx="2.623" cy="2.623" r="2.623" transform="translate(106.633 320.657)"/><circle class="a" cx="3.451" cy="3.451" r="3.451" transform="translate(206.992 306.642)"/><circle class="a" cx="2.827" cy="2.827" r="2.827" transform="translate(186.225 273.628)"/><circle class="a" cx="2.944" cy="2.944" r="2.944" transform="translate(555.851 1005.202)"/><circle class="a" cx="2.884" cy="2.884" r="2.884" transform="translate(506.162 945.275)"/><circle class="a" cx="1.969" cy="1.969" r="1.969" transform="translate(487.029 964.953)"/><circle class="a" cx="1.887" cy="1.887" r="1.887" transform="translate(475.347 967.328)"/><circle class="a" cx="2.035" cy="2.035" r="2.035" transform="translate(476.012 1016.352)"/><circle class="a" cx="2.59" cy="2.59" r="2.59" transform="translate(460.517 1027.768)"/><circle class="a" cx="2.273" cy="2.273" r="2.273" transform="translate(423.102 1024.103)"/><circle class="a" cx="2.605" cy="2.605" r="2.605" transform="translate(402.587 994.233)"/><circle class="a" cx="2.735" cy="2.735" r="2.735" transform="translate(352.88 1009.269)"/><circle class="a" cx="2.414" cy="2.414" r="2.414" transform="translate(298.604 973.936)"/><circle class="a" cx="3.617" cy="3.617" r="3.617" transform="translate(289.977 1000.37)"/><circle class="a" cx="3.133" cy="3.133" r="3.133" transform="translate(1070.751 724.503)"/><circle class="a" cx="3.748" cy="3.748" r="3.748" transform="translate(1045.259 700.531)"/><circle class="a" cx="1.846" cy="1.846" r="1.846" transform="translate(1028.717 684.832)"/><circle class="a" cx="1.834" cy="1.834" r="1.834" transform="translate(993.049 701.141)"/><circle class="a" cx="3.764" cy="3.764" r="3.764" transform="translate(992.295 680.451)"/><circle class="a" cx="3.531" cy="3.531" r="3.531" transform="translate(1495.534 595.261)"/><circle class="a" cx="3.708" cy="3.708" r="3.708" transform="translate(1523.595 518.558)"/><circle class="a" cx="2.084" cy="2.084" r="2.084" transform="translate(1494.083 530.202)"/><circle class="a" cx="1.755" cy="1.755" r="1.755" transform="translate(1465.807 510.721)"/><circle class="a" cx="3.35" cy="3.35" r="3.35" transform="translate(1419.835 530.01)"/><circle class="a" cx="3.065" cy="3.065" r="3.065" transform="translate(1396.351 507.904)"/><circle class="a" cx="3.695" cy="3.695" r="3.695" transform="translate(1413.764 462.935)"/><circle class="a" cx="2.068" cy="2.068" r="2.068" transform="translate(1394.06 473.192)"/><circle class="a" cx="3.567" cy="3.567" r="3.567" transform="translate(1334.782 478.793)"/><circle class="a" cx="3.071" cy="3.071" r="3.071" transform="translate(1021.59 167.545)"/><circle class="a" cx="3.598" cy="3.598" r="3.598" transform="translate(1004.937 145.453)"/><circle class="a" cx="3.605" cy="3.605" r="3.605" transform="translate(974.21 146.761)"/><circle class="a" cx="2.345" cy="2.345" r="2.345" transform="translate(951.102 116.902)"/><circle class="a" cx="1.863" cy="1.863" r="1.863" transform="translate(949.17 79.131)"/><circle class="a" cx="2.561" cy="2.561" r="2.561" transform="translate(933.373 62.249)"/><circle class="a" cx="2.536" cy="2.536" r="2.536" transform="translate(1787.729 636.054)"/><circle class="a" cx="3.096" cy="3.096" r="3.096" transform="translate(1768.039 618.068)"/><circle class="a" cx="3.012" cy="3.012" r="3.012" transform="translate(1712.524 624.569)"/><circle class="a" cx="2.006" cy="2.006" r="2.006" transform="translate(1261.647 811.596)"/><circle class="a" cx="3.406" cy="3.406" r="3.406" transform="translate(1248.017 765.574)"/><circle class="a" cx="2.234" cy="2.234" r="2.234" transform="translate(1219.29 789.908)"/><circle class="a" cx="3.478" cy="3.478" r="3.478" transform="translate(1223.61 749.214)"/><circle class="a" cx="1.981" cy="1.981" r="1.981" transform="translate(1206.899 758.238)"/><circle class="a" cx="3.162" cy="3.162" r="3.162" transform="translate(760.546 930.911)"/><circle class="a" cx="3.538" cy="3.538" r="3.538" transform="translate(732.972 942.816)"/><circle class="a" cx="3.298" cy="3.298" r="3.298" transform="translate(708.703 878.742)"/><circle class="a" cx="3.208" cy="3.208" r="3.208" transform="translate(918.369 475.73)"/><circle class="a" cx="3.374" cy="3.374" r="3.374" transform="translate(947.526 533.195)"/><circle class="a" cx="3.618" cy="3.618" r="3.618" transform="translate(957.281 553.445)"/><circle class="a" cx="3.774" cy="3.774" r="3.774" transform="translate(928.841 588.57)"/><circle class="a" cx="2.144" cy="2.144" r="2.144" transform="translate(682.261 68.615)"/><circle class="a" cx="3.728" cy="3.728" r="3.728" transform="translate(662.24 57.282)"/><circle class="a" cx="2.545" cy="2.545" r="2.545" transform="translate(651.231 33.178)"/><circle class="a" cx="3.731" cy="3.731" r="3.731" transform="translate(600.099 59.339)"/><circle class="a" cx="2.295" cy="2.295" r="2.295" transform="translate(1192.161 54.923)"/><circle class="a" cx="2.415" cy="2.415" r="2.415" transform="translate(1139.093 72.942)"/><circle class="a" cx="3.123" cy="3.123" r="3.123" transform="translate(1091.245 11.453)"/><circle class="a" cx="2.99" cy="2.99" r="2.99" transform="translate(1841.465 80.08)"/><circle class="a" cx="1.793" cy="1.793" r="1.793" transform="translate(1886.252 313.751)"/><circle class="a" cx="2.354" cy="2.354" r="2.354" transform="translate(1589.279 649.134)"/><circle class="a" cx="3.621" cy="3.621" r="3.621" transform="translate(1810.321 1003.208)"/><circle class="a" cx="3.147" cy="3.147" r="3.147" transform="translate(1858.744 673.706)"/><circle class="a" cx="2.268" cy="2.268" r="2.268" transform="translate(1456.416 1057.412)"/><circle class="a" cx="3" cy="3" r="3" transform="translate(697.216 1047.679)"/><circle class="a" cx="3.099" cy="3.099" r="3.099" transform="translate(107.383 977.5)"/><circle class="a" cx="1.952" cy="1.952" r="1.952" transform="translate(121.851 1003.395)"/><circle class="a" cx="2.691" cy="2.691" r="2.691" transform="translate(131.726 1006.36)"/><circle class="a" cx="1.767" cy="1.767" r="1.767" transform="translate(162.291 1057.666)"/><circle class="a" cx="2.553" cy="2.553" r="2.553" transform="translate(100.478 619.667)"/><circle class="a" cx="2.698" cy="2.698" r="2.698" transform="translate(167.898 461.882)"/><circle class="a" cx="2.943" cy="2.943" r="2.943" transform="translate(41.242 225.426)"/><circle class="a" cx="3.52" cy="3.52" r="3.52" transform="translate(247.718 19.01)"/><circle class="a" cx="3.001" cy="3.001" r="3.001" transform="translate(1231.194 394.01)"/><circle class="a" cx="3.059" cy="3.059" r="3.059" transform="translate(1381.521 595.65)"/><circle class="a" cx="2.438" cy="2.438" r="2.438" transform="translate(1648.042 553.169)"/><circle class="a" cx="3.562" cy="3.562" r="3.562" transform="translate(1862.689 535.5)"/><circle class="a" cx="1.87" cy="1.87" r="1.87" transform="translate(1842.585 765.613)"/><circle class="a" cx="2.779" cy="2.779" r="2.779" transform="translate(1425.391 855.227)"/><circle class="a" cx="3.479" cy="3.479" r="3.479" transform="translate(1867.13 884.918)"/></svg>