<svg xmlns="http://www.w3.org/2000/svg" width="16.168" height="28.744" viewBox="0 0 16.168 28.744"><defs><style>.a{fill:#fff;}</style></defs><g transform="translate(0.852)"><path class="a" d="M141.565,3.407h-5.954L132.26.249a.944.944,0,0,0-1.278,0,.818.818,0,0,0,0,1.2l2.072,1.954h-4.146a.879.879,0,0,0-.9.852.879.879,0,0,0,.9.852h12.657a.879.879,0,0,0,.9-.852A.879.879,0,0,0,141.565,3.407Z" transform="translate(-128.004)"/></g><g transform="translate(0 6.814)"><g transform="translate(0)"><path class="a" d="M127.145,128.008H113.032L112,129.835v16.447l2.213,3.655h11.74l2.215-3.655V129.835Z" transform="translate(-112.004 -128.008)"/></g></g></svg>