<svg xmlns="http://www.w3.org/2000/svg" width="46.242" height="21.778" viewBox="0 0 46.242 21.778"><defs><style>.a{fill:#fff;}</style></defs><path class="a" d="M2138.084,468.145a30.384,30.384,0,0,0,3.523-1.628,5.288,5.288,0,0,0,2.723-3.912,46.212,46.212,0,0,0,.41-4.7,7.42,7.42,0,0,0-.052-1.052c0-.178-.109-.266-.3-.313-.559-.089-.676-.018-.7.545-.033.449-.018.9-.035,1.352-.068.915-.152,1.844-.2,2.76a8.064,8.064,0,0,1-.24,1.514,4.568,4.568,0,0,1-2.552,3.119c-.8.345-1.584.706-2.367,1.051a9.08,9.08,0,0,1-2.713.7c-1.024.118-2.033.238-3.04.325a22.266,22.266,0,0,1-3.283.129c-.789-.026-1.581,0-2.355,0-1.34.014-2.666.062-4,.061-.579-.01-1.175-.022-1.757-.016-.707-.02-1.418-.008-2.111-.011-.838-.013-1.664.023-2.482-.021-1.832-.1-3.674-.27-5.519-.389-1.911-.124-3.832-.314-5.733-.551a8.886,8.886,0,0,1-1.272-.255,6.271,6.271,0,0,1-4.413-6.018c0-1.049.123-2.1.184-3.163a3.87,3.87,0,0,0-.008-.759.437.437,0,0,0-.4-.433.483.483,0,0,0-.522.3,1.111,1.111,0,0,0-.1.508c-.054.738-.078,1.494-.18,2.229a8.2,8.2,0,0,0,.348,3.606,6.976,6.976,0,0,0,4.4,4.646,10.389,10.389,0,0,0,2.594.48c3.524.324,7.03.678,10.561.905.209.016.435.016.645.015.661,0,1.339-.014,2-.014.71-.013,1.417.023,2.113-.006.567-.039,1.145,0,1.71,0l2.469-.012c.677,0,1.369.02,2.049-.011.452-.015.9,0,1.355-.013,1.018-.022,2.037-.06,3.055-.082a.478.478,0,0,1,.481.261c.057.1.13.2.188.3.766,1.2,1.531,2.419,2.3,3.62a3.1,3.1,0,0,0,.381.528.518.518,0,0,0,.88-.128,1.431,1.431,0,0,0,.179-.681q.094-.936.186-1.873c.064-.656.114-1.33.178-1.986.058-.577.058-.577.584-.716a6.4,6.4,0,0,0,.856-.227" transform="translate(-2098.504 -452.17)"/><path class="a" d="M2181.2,451.332a16.109,16.109,0,0,0,1.917,2,4.418,4.418,0,0,0,1.141.713,7.639,7.639,0,0,0,2.135.576,8.944,8.944,0,0,0,3.341-.028,7.745,7.745,0,0,0,5.5-5.725c.142-.618.14-1.248.267-1.868a23.939,23.939,0,0,0,.335-3.024,4.809,4.809,0,0,0,.02-.483.8.8,0,0,0-.656-.726.891.891,0,0,0-.287-.053c-.6-.012-1.176-.021-1.771-.049a18.627,18.627,0,0,0-2.857.258,22.083,22.083,0,0,1-5.155.138,11.547,11.547,0,0,0-2.588.1c-.439.064-.881.145-1.323.225a.84.84,0,0,0-.682.724,3.448,3.448,0,0,0-.031.417c-.05.464-.084.929-.12,1.411-.031.416-.062.85-.094,1.283a11.538,11.538,0,0,0,.174,2.464,3.827,3.827,0,0,0,.734,1.651m3.07-4.032a.791.791,0,0,1,.914-.143.677.677,0,0,1,.417.708.947.947,0,0,1-1.314.742.545.545,0,0,1-.286-.279,1.032,1.032,0,0,1,.269-1.029" transform="translate(-2154.742 -442.659)"/><path d="M2192.357,458.323a.946.946,0,0,0,1.313-.742.676.676,0,0,0-.416-.708.79.79,0,0,0-.914.143,1.029,1.029,0,0,0-.269,1.029.541.541,0,0,0,.286.279" transform="translate(-2162.815 -452.375)"/><path class="a" d="M2116.659,445.764a14.066,14.066,0,0,0-.569,3.344q-.047.65-.1,1.3a1.768,1.768,0,0,0,.022.582,7.268,7.268,0,0,0,1.493,3.158,4.749,4.749,0,0,0,2.986,1.719c.876.16,1.745.177,2.625.273a4.338,4.338,0,0,0,2.187-.339,8.9,8.9,0,0,0,3.089-2.1,6.457,6.457,0,0,0,1.456-2.247c.079-.2.159-.408.222-.613a16.163,16.163,0,0,0,.838-4.6.793.793,0,0,0-.848-.965,40.432,40.432,0,0,0-4.177-.226c-.582.022-1.165.043-1.759.016-1.64-.072-3.279-.16-4.917-.248a13.426,13.426,0,0,0-1.645.008.9.9,0,0,0-.8.6,2.58,2.58,0,0,0-.1.331m2.547,3.09a.722.722,0,0,1,.186-.116.793.793,0,0,1,.84-.019.761.761,0,0,1,.3.78.654.654,0,0,1-.919.658,2.764,2.764,0,0,1-.328-.137c-.542-.315-.588-.786-.076-1.167" transform="translate(-2110.523 -444.132)"/><path d="M2125.591,458.4a2.815,2.815,0,0,0,.329.137.654.654,0,0,0,.919-.658.761.761,0,0,0-.3-.78.792.792,0,0,0-.84.019.736.736,0,0,0-.187.116c-.511.381-.465.853.076,1.167" transform="translate(-2116.833 -452.51)"/></svg>