<svg xmlns="http://www.w3.org/2000/svg" width="29.152" height="23.914" viewBox="0 0 29.152 23.914"><defs><style>.a{fill:#fff;}</style></defs><g transform="translate(0 -46)"><g transform="translate(24.598 56.207)"><path class="a" d="M439.655,226H436.9a.9.9,0,1,0,0,1.8h2.756a.9.9,0,0,0,0-1.8Z" transform="translate(-436 -226)"/></g><g transform="translate(23.699 59.546)"><path class="a" d="M424.332,288.061l-1.8-1.8a.9.9,0,0,0-1.271,1.271l1.8,1.8a.9.9,0,0,0,1.271-1.271Z" transform="translate(-421 -286)"/></g><g transform="translate(23.699 51.08)"><path class="a" d="M424.332,136.263a.9.9,0,0,0-1.271,0l-1.8,1.8a.9.9,0,0,0,1.271,1.271l1.8-1.8A.9.9,0,0,0,424.332,136.263Z" transform="translate(-421 -136)"/></g><g transform="translate(0 50.923)"><path class="a" d="M6.351,136a2.692,2.692,0,0,0-2.531,1.8H3.655a3.6,3.6,0,1,0,0,7.19h.166a2.692,2.692,0,0,0,2.531,1.8h4.494V136Z" transform="translate(0 -136)"/></g><g transform="translate(18.715 46)"><path class="a" d="M332.8,46a1.748,1.748,0,0,0-1.8,1.693V64.625a1.8,1.8,0,0,0,3.6,0V47.693A1.748,1.748,0,0,0,332.8,46Z" transform="translate(-331 -46)"/></g><g transform="translate(5.123 62.632)"><path class="a" d="M91.9,344.573a4.493,4.493,0,0,1-.9-.091v4.585a2.7,2.7,0,0,0,5.393,0v-4.494Z" transform="translate(-91 -344.482)"/></g><g transform="translate(11.88 48.324)"><path class="a" d="M215.6,85.579A7.7,7.7,0,0,1,211,87.77V98.731a7.7,7.7,0,0,1,4.6,2.191l.79.79V84.789Z" transform="translate(-211 -84.789)"/></g></g></svg>