<svg xmlns="http://www.w3.org/2000/svg" width="29.444" height="23.923" viewBox="0 0 29.444 23.923"><defs><style>.a{fill:#fff;}</style></defs><g transform="translate(0 0)"><path class="a" d="M29.279,54.83l-4.6-6.441A.959.959,0,0,0,23.924,48H5.521a.959.959,0,0,0-.755.386L.166,54.83l-.166.5a3.687,3.687,0,0,0,3.681,3.717,3.648,3.648,0,0,0,2.76-1.251,3.67,3.67,0,0,0,5.521,0,3.67,3.67,0,0,0,5.521,0,3.67,3.67,0,0,0,5.521,0,3.648,3.648,0,0,0,2.76,1.251,3.687,3.687,0,0,0,3.681-3.717Z" transform="translate(0 -48.003)"/></g><g transform="translate(1.84 12.138)"><g transform="translate(0 0)"><path class="a" d="M55.926,259.818a5.506,5.506,0,0,1-2.76-.743,5.639,5.639,0,0,1-5.521,0,5.639,5.639,0,0,1-5.521,0,5.639,5.639,0,0,1-5.521,0,5.6,5.6,0,0,1-4.6.385v9.56a1.841,1.841,0,0,0,1.84,1.84H48.565v-9.2h5.521v9.2h1.84a1.841,1.841,0,0,0,1.84-1.84v-9.538A5.488,5.488,0,0,1,55.926,259.818Zm-12.882,7.361H35.684v-5.521h7.361Z" transform="translate(-32.003 -259.075)"/></g></g></svg>